<svg width="1425" height="515" viewBox="0 0 1425 515" fill="none" xmlns="http://www.w3.org/2000/svg">
<line y1="514.5" x2="1425" y2="514.5" stroke="#D9D9D9"/>
<rect x="179" y="340" width="94" height="175" fill="#F3D58D"/>
<rect x="290" y="404" width="88" height="110" stroke="#D9D9D9" stroke-width="2"/>
<rect x="274" y="101" width="121" height="85" stroke="#D9D9D9" stroke-width="2"/>
<line x1="303" y1="128" x2="373" y2="128" stroke="#D9D9D9" stroke-width="2"/>
<line x1="302.995" y1="156.5" x2="348.006" y2="156.5" stroke="#D9D9D9" stroke-width="2"/>
<rect x="1097" y="1" width="74" height="50.1645" stroke="#D9D9D9" stroke-width="2"/>
<line x1="1114.54" y1="16.3882" x2="1157.79" y2="16.3882" stroke="#D9D9D9" stroke-width="2"/>
<line x1="1114.53" y1="33.4766" x2="1142.34" y2="33.4766" stroke="#D9D9D9" stroke-width="2"/>
<rect x="1080" y="404" width="150" height="110" stroke="#D9D9D9" stroke-width="2"/>
<rect x="1007" y="229" width="190" height="139" stroke="#D9D9D9" stroke-width="2"/>
<rect x="1029" y="252" width="55" height="14" stroke="#F3D58D" stroke-width="2"/>
<rect x="1029" y="279" width="55" height="14" stroke="#F3D58D" stroke-width="2"/>
<rect x="1029" y="306" width="55" height="14" stroke="#F3D58D" stroke-width="2"/>
<rect x="1029" y="333" width="55" height="14" stroke="#F3D58D" stroke-width="2"/>
<circle cx="1142.5" cy="291.5" r="42.5" stroke="#F3D58D" stroke-width="2"/>
<line x1="1006" y1="226.519" x2="1200" y2="226.519" stroke="#F3D58D" stroke-width="3"/>
</svg>
