<svg width="262" height="90" viewBox="0 0 262 90" fill="none" xmlns="http://www.w3.org/2000/svg">
<path d="M0.674316 67.1931L82.9902 57.2302C85.075 56.9779 86.09 59.6985 84.3494 60.8734L64.4518 74.3044C58.617 78.243 51.392 79.539 44.552 77.8739L0.674316 67.1931Z" fill="black"/>
<path d="M23.7725 19.0945C23.7894 17.5228 25.2357 16.3566 26.7754 16.6726L70.8311 25.7156C73.1139 26.1842 74.6616 28.3191 74.3975 30.6345L72.0703 51.033C71.6424 54.7843 68.1196 57.3834 64.4092 56.6843L36.2227 51.3728C28.8374 49.981 23.5142 43.4912 23.5938 35.9763L23.7725 19.0945Z" fill="#ECDDC6" stroke="black"/>
<path d="M25.4092 22.0747C25.4092 20.3395 26.9967 19.0374 28.6982 19.3774L66.5732 26.9458C70.4553 27.7215 73.1288 31.2989 72.7734 35.2417L72.667 36.4224L25.4092 23.8472V22.0747Z" fill="#ECDDC6" stroke="black" stroke-width="0.5"/>
<path d="M25.6592 26.0269C25.6592 24.4493 27.1025 23.2664 28.6494 23.5757L66.4209 31.1274C69.8559 31.8143 72.2878 34.8324 72.2852 38.2827L25.6592 28.3198V26.0269Z" fill="#ECDDC6" stroke="black"/>
<path d="M25.6592 29.6123C25.6592 28.0371 27.0983 26.854 28.6436 27.1592L66.2188 34.5879C69.5324 35.243 71.85 38.1921 71.7627 41.5146L25.6592 31.1924V29.6123Z" fill="#ECDDC6" stroke="black"/>
<path d="M25.6592 33.1853C25.6593 31.6156 27.0893 30.4341 28.6309 30.7302L65.2432 37.7634C68.9542 38.4764 71.5328 41.8287 71.3145 45.5613L46.584 44.408L25.6592 35.9021V33.1853Z" fill="#ECDDC6" stroke="black"/>
<path d="M37.084 37.8535C37.11 37.8854 37.1398 37.923 37.1748 37.9648C37.3046 38.1198 37.4957 38.3408 37.7441 38.6094C38.2408 39.1463 38.9691 39.8752 39.8984 40.6484C41.7527 42.1911 44.4327 43.9306 47.6963 44.6494C50.9958 45.3761 54.0607 44.5586 56.2773 43.582C57.3885 43.0925 58.2965 42.5587 58.9277 42.1465C59.2436 41.9402 59.4915 41.7635 59.6611 41.6377C59.6924 41.6145 59.7202 41.5919 59.7461 41.5723L73.0635 43.6709L72.2051 51.0459C71.7685 54.7922 68.2449 57.3822 64.5391 56.6807L36.2227 51.3203C28.8378 49.9221 23.5205 43.4267 23.6074 35.9111L23.624 34.418L37.084 37.8535Z" fill="#ECDDC6" stroke="black"/>
<path d="M19.8188 21.969C19.8357 20.3973 21.282 19.2311 22.8218 19.5471L66.8774 28.5901C69.1603 29.0587 70.708 31.1936 70.4438 33.509L68.1167 53.9075C67.6888 57.6588 64.1659 60.2579 60.4556 59.5588L32.269 54.2473C24.8837 52.8555 19.5606 46.3657 19.6401 38.8508L19.8188 21.969Z" fill="#F3D58D" stroke="black"/>
<path d="M21.4561 24.9492C21.4561 23.214 23.0436 21.9119 24.7451 22.252L62.6201 29.8203C66.5022 30.5961 69.1757 34.1734 68.8203 38.1162L68.7139 39.2969L21.4561 26.7217V24.9492Z" fill="#F3D58D" stroke="black" stroke-width="0.5"/>
<path d="M21.4561 28.9016C21.4561 27.1663 23.0435 25.8651 24.7451 26.2053L62.5166 33.7571C66.1712 34.4878 68.7288 37.7696 68.5762 41.4651L21.4561 31.3967V28.9016Z" fill="#F3D58D" stroke="black" stroke-width="0.5"/>
<path d="M21.7061 32.4871C21.7061 30.9119 23.1452 29.7288 24.6904 30.0339L62.2656 37.4626C65.5793 38.1177 67.8969 41.0669 67.8096 44.3894L21.7061 34.0671V32.4871Z" fill="#F3D58D" stroke="black"/>
<path d="M21.7061 36.0598C21.7062 34.4901 23.1361 33.3086 24.6777 33.6047L61.29 40.6379C65.001 41.3509 67.5797 44.7033 67.3613 48.4358L42.6309 47.2825L21.7061 38.7766V36.0598Z" fill="#F3D58D" stroke="black"/>
<path d="M33.1304 40.728C33.1564 40.7599 33.1862 40.7975 33.2212 40.8394C33.351 40.9943 33.5421 41.2153 33.7905 41.4839C34.2872 42.0208 35.0155 42.7498 35.9448 43.5229C37.7991 45.0657 40.4791 46.8051 43.7427 47.5239C47.0422 48.2506 50.1071 47.4331 52.3237 46.4565C53.4349 45.967 54.3429 45.4332 54.9741 45.021C55.29 44.8147 55.5379 44.638 55.7075 44.5122C55.7388 44.489 55.7665 44.4664 55.7925 44.4468L69.1099 46.5454L68.2515 53.9204C67.8149 57.6667 64.2913 60.2567 60.5854 59.5552L32.269 54.1948C24.8842 52.7967 19.5669 46.3012 19.6538 38.7856L19.6704 37.2925L33.1304 40.728Z" fill="#F3D58D" stroke="black"/>
<path d="M15.8662 3.64355C15.8831 2.07188 17.3294 0.905639 18.8691 1.22168L62.9248 10.2646C65.2077 10.7333 66.7553 12.8681 66.4912 15.1836L63.6768 39.8564C63.5122 41.2992 62.1574 42.2989 60.7305 42.0303L19.2568 34.2148C17.1128 33.8108 15.5669 31.9267 15.5898 29.7451L15.8662 3.64355Z" fill="url(#paint0_linear_198_713)" stroke="black"/>
<path d="M17.7539 6.62378C17.7539 5.04633 19.1973 3.86253 20.7441 4.17163L58.6191 11.74C62.376 12.4907 64.963 15.9527 64.6191 19.7683L64.5391 20.6531L17.7539 8.20483V6.62378Z" fill="#ECDDC6" stroke="black"/>
<path d="M17.7539 10.5762C17.7539 8.99862 19.1972 7.81571 20.7441 8.125L58.5156 15.6768C61.9507 16.3636 64.3825 19.3817 64.3799 22.832L17.7539 12.8691V10.5762Z" fill="#F3D58D" stroke="black"/>
<path d="M17.7539 14.1616C17.7539 12.5864 19.193 11.4033 20.7383 11.7085L58.3135 19.1372C61.6271 19.7923 63.9447 22.7414 63.8574 26.064L17.7539 15.7417V14.1616Z" fill="#E59E2C" stroke="black"/>
<path d="M17.7539 17.7341C17.754 16.1644 19.184 14.9829 20.7256 15.2791L57.3379 22.3123C61.0489 23.0252 63.6276 26.3776 63.4092 30.1101L38.6787 28.9568L17.7539 20.4509V17.7341Z" fill="#8B3B08" stroke="black"/>
<path d="M29.1777 22.4026C29.2038 22.4345 29.2336 22.4721 29.2686 22.5139C29.3983 22.6689 29.5894 22.8898 29.8379 23.1584C30.3346 23.6954 31.0629 24.4243 31.9922 25.1975C33.8465 26.7402 36.5264 28.4796 39.79 29.1985C43.0895 29.9252 46.1544 29.1077 48.3711 28.1311C49.4823 27.6416 50.3903 27.1078 51.0215 26.6956C51.3374 26.4892 51.5852 26.3126 51.7549 26.1868C51.7861 26.1636 51.8139 26.141 51.8398 26.1213L64.9473 28.1868L63.5918 39.8274C63.4239 41.2684 62.068 42.2644 60.6426 41.9944L19.2568 34.1545C17.1131 33.7484 15.5695 31.8627 15.5947 29.6809L15.7178 18.967L29.1777 22.4026Z" fill="url(#paint1_linear_198_713)" stroke="black"/>
<path d="M10.8364 26.9993C10.8533 25.4276 12.2996 24.2614 13.8394 24.5774L57.895 33.6204C60.1779 34.089 61.7255 36.2239 61.4614 38.5393L59.1343 58.9377C58.7064 62.6891 55.1835 65.2881 51.4731 64.5891L23.2866 59.2776C15.9013 57.8858 10.5781 51.396 10.6577 43.8811L10.8364 26.9993Z" fill="#E59E2C" stroke="black"/>
<path d="M12.4741 29.9795C12.4741 28.2443 14.0616 26.9422 15.7632 27.2822L53.6382 34.8506C57.5202 35.6263 60.1937 39.2036 59.8384 43.1465L59.7319 44.3271L12.4741 31.752V29.9795Z" fill="#E59E2C" stroke="black" stroke-width="0.5"/>
<path d="M12.4741 33.9319C12.4741 32.1966 14.0616 30.8954 15.7632 31.2356L53.5347 38.7874C57.1892 39.518 59.7468 42.7999 59.5942 46.4954L12.4741 36.427V33.9319Z" fill="#E59E2C" stroke="black" stroke-width="0.5"/>
<path d="M12.7241 37.5173C12.7241 35.9422 14.1632 34.7591 15.7085 35.0642L53.2837 42.4929C56.5973 43.148 58.915 46.0971 58.8276 49.4197L12.7241 39.0974V37.5173Z" fill="#E59E2C" stroke="black"/>
<path d="M12.7241 41.0903C12.7243 39.5206 14.1542 38.3391 15.6958 38.6353L52.3081 45.6685C56.0191 46.3814 58.5978 49.7338 58.3794 53.4663L33.6489 52.313L12.7241 43.8071V41.0903Z" fill="#E59E2C" stroke="black"/>
<path d="M24.1479 45.7585C24.174 45.7904 24.2038 45.8281 24.2388 45.8699C24.3685 46.0249 24.5596 46.2458 24.8081 46.5144C25.3048 47.0513 26.0331 47.7803 26.9624 48.5535C28.8167 50.0962 31.4966 51.8356 34.7603 52.5544C38.0597 53.2811 41.1246 52.4636 43.3413 51.4871C44.4525 50.9975 45.3605 50.4638 45.9917 50.0515C46.3076 49.8452 46.5554 49.6685 46.7251 49.5427C46.7564 49.5195 46.7841 49.4969 46.8101 49.4773L60.1274 51.5759L59.269 58.9509C58.8325 62.6972 55.3089 65.2872 51.603 64.5857L23.2866 59.2253C15.9018 57.8272 10.5845 51.3318 10.6714 43.8162L10.688 42.323L24.1479 45.7585Z" fill="#E59E2C" stroke="black"/>
<path d="M5.4458 30.2334C5.46269 28.6617 6.909 27.4955 8.44873 27.8115L52.5044 36.8545C54.7873 37.3231 56.3349 39.458 56.0708 41.7734L53.7437 62.1719C53.3158 65.9232 49.7929 68.5223 46.0825 67.8232L17.896 62.5117C10.5107 61.1199 5.18751 54.6301 5.26709 47.1152L5.4458 30.2334Z" fill="#8B3B08" stroke="black"/>
<path d="M7.0835 33.2136C7.0835 31.4784 8.67101 30.1763 10.3726 30.5164L48.2476 38.0847C52.1296 38.8605 54.8031 42.4378 54.4478 46.3806L54.3413 47.5613L7.0835 34.9861V33.2136Z" fill="#8B3B08" stroke="black" stroke-width="0.5"/>
<path d="M7.0835 37.166C7.0835 35.4307 8.67094 34.1295 10.3726 34.4697L48.144 42.0215C51.7986 42.7522 54.3562 46.034 54.2036 49.7295L7.0835 39.6611V37.166Z" fill="#8B3B08" stroke="black" stroke-width="0.5"/>
<path d="M7.3335 40.7515C7.3335 39.1763 8.77262 37.9932 10.3179 38.2983L47.8931 45.7271C51.2067 46.3821 53.5243 49.3313 53.437 52.6538L7.3335 42.3315V40.7515Z" fill="#8B3B08" stroke="black"/>
<path d="M7.3335 44.3242C7.33364 42.7545 8.76359 41.573 10.3052 41.8691L46.9175 48.9023C50.6285 49.6153 53.2072 52.9677 52.9888 56.7002L28.2583 55.5469L7.3335 47.041V44.3242Z" fill="#8B3B08" stroke="black"/>
<path d="M18.7573 48.9924C18.7834 49.0243 18.8131 49.062 18.8481 49.1038C18.9779 49.2588 19.169 49.4797 19.4175 49.7483C19.9142 50.2852 20.6425 51.0142 21.5718 51.7874C23.426 53.3301 26.106 55.0695 29.3696 55.7883C32.6691 56.515 35.734 55.6975 37.9507 54.7209C39.0619 54.2314 39.9699 53.6976 40.6011 53.2854C40.917 53.0791 41.1648 52.9024 41.3345 52.7766C41.3657 52.7534 41.3935 52.7308 41.4194 52.7112L54.7368 54.8098L53.8784 62.1848C53.4419 65.9311 49.9182 68.5211 46.2124 67.8196L17.896 62.4592C10.5111 61.0611 5.19387 54.5656 5.28076 47.05L5.29736 45.5569L18.7573 48.9924Z" fill="#8B3B08" stroke="black"/>
<path d="M79.9814 58.5784L53.9844 76.1995L1.31445 67.0696V36.2288L54.0352 45.719L54.4014 45.7854L54.7207 45.5959L79.9814 30.677V58.5784Z" fill="#D9D9D9" stroke="black" stroke-width="2"/>
<line x1="53.5723" y1="76.5352" x2="53.5723" y2="45.6334" stroke="black" stroke-width="2"/>
<path d="M16.9575 48.6831C17.1668 46.8675 18.8262 45.5776 20.6374 45.8228L31.8794 47.3445C33.6768 47.5878 34.9141 49.2732 34.6077 51.061C34.3183 52.749 32.7527 53.911 31.0532 53.6991L19.7958 52.2955C18.0189 52.074 16.7523 50.462 16.9575 48.6831Z" fill="black"/>
<path d="M4.95326 35.9823L0.313759 35.0338L4.95321 32.3387L4.95326 35.9823Z" fill="black"/>
<path d="M74.2242 33.7644L74.2242 28.5001L81 29L74.2242 33.7644Z" fill="black"/>
<path d="M109.033 40.384C109.033 41.5147 108.766 42.5813 108.233 43.584C107.699 44.5867 106.846 45.408 105.673 46.048C104.499 46.6667 102.995 46.976 101.161 46.976H97.1286V56H93.4806V33.76H101.161C102.867 33.76 104.307 34.0587 105.481 34.656C106.675 35.232 107.561 36.0213 108.137 37.024C108.734 38.0267 109.033 39.1467 109.033 40.384ZM101.161 44C102.547 44 103.582 43.6907 104.265 43.072C104.947 42.432 105.289 41.536 105.289 40.384C105.289 37.952 103.913 36.736 101.161 36.736H97.1286V44H101.161ZM119.84 56.288C118.176 56.288 116.672 55.9147 115.328 55.168C113.984 54.4 112.928 53.3333 112.16 51.968C111.392 50.5813 111.008 48.9813 111.008 47.168C111.008 45.376 111.403 43.7867 112.192 42.4C112.981 41.0133 114.059 39.9467 115.424 39.2C116.789 38.4533 118.315 38.08 120 38.08C121.685 38.08 123.211 38.4533 124.576 39.2C125.941 39.9467 127.019 41.0133 127.808 42.4C128.597 43.7867 128.992 45.376 128.992 47.168C128.992 48.96 128.587 50.5493 127.776 51.936C126.965 53.3227 125.856 54.4 124.448 55.168C123.061 55.9147 121.525 56.288 119.84 56.288ZM119.84 53.12C120.779 53.12 121.653 52.896 122.464 52.448C123.296 52 123.968 51.328 124.48 50.432C124.992 49.536 125.248 48.448 125.248 47.168C125.248 45.888 125.003 44.8107 124.512 43.936C124.021 43.04 123.371 42.368 122.56 41.92C121.749 41.472 120.875 41.248 119.936 41.248C118.997 41.248 118.123 41.472 117.312 41.92C116.523 42.368 115.893 43.04 115.424 43.936C114.955 44.8107 114.72 45.888 114.72 47.168C114.72 49.0667 115.2 50.5387 116.16 51.584C117.141 52.608 118.368 53.12 119.84 53.12ZM131.062 47.168C131.062 45.3547 131.425 43.7653 132.15 42.4C132.897 41.0133 133.921 39.9467 135.222 39.2C136.523 38.4533 138.017 38.08 139.702 38.08C141.835 38.08 143.595 38.592 144.982 39.616C146.39 40.6187 147.339 42.0587 147.83 43.936H143.894C143.574 43.0613 143.062 42.3787 142.358 41.888C141.654 41.3973 140.769 41.152 139.702 41.152C138.209 41.152 137.014 41.6853 136.118 42.752C135.243 43.7973 134.806 45.2693 134.806 47.168C134.806 49.0667 135.243 50.5493 136.118 51.616C137.014 52.6827 138.209 53.216 139.702 53.216C141.814 53.216 143.211 52.288 143.894 50.432H147.83C147.318 52.224 146.358 53.6533 144.95 54.72C143.542 55.7653 141.793 56.288 139.702 56.288C138.017 56.288 136.523 55.9147 135.222 55.168C133.921 54.4 132.897 53.3333 132.15 51.968C131.425 50.5813 131.062 48.9813 131.062 47.168ZM158.122 47.2L166.25 56H161.322L154.794 48.416V56H151.146V32.32H154.794V46.08L161.194 38.368H166.25L158.122 47.2ZM170.4 36.032C169.739 36.032 169.184 35.808 168.736 35.36C168.288 34.912 168.064 34.3573 168.064 33.696C168.064 33.0347 168.288 32.48 168.736 32.032C169.184 31.584 169.739 31.36 170.4 31.36C171.04 31.36 171.584 31.584 172.032 32.032C172.48 32.48 172.704 33.0347 172.704 33.696C172.704 34.3573 172.48 34.912 172.032 35.36C171.584 35.808 171.04 36.032 170.4 36.032ZM172.192 38.368V56H168.544V38.368H172.192ZM191.03 33.76V36.736H185.11V56H181.462V36.736H175.51V33.76H191.03ZM198.052 40.928C198.586 40.032 199.29 39.3387 200.164 38.848C201.06 38.336 202.116 38.08 203.332 38.08V41.856H202.404C200.975 41.856 199.887 42.2187 199.14 42.944C198.415 43.6693 198.052 44.928 198.052 46.72V56H194.404V38.368H198.052V40.928ZM205.15 47.104C205.15 45.3333 205.512 43.7653 206.238 42.4C206.984 41.0347 207.987 39.9787 209.246 39.232C210.526 38.464 211.934 38.08 213.47 38.08C214.856 38.08 216.062 38.3573 217.086 38.912C218.131 39.4453 218.963 40.1173 219.582 40.928V38.368H223.262V56H219.582V53.376C218.963 54.208 218.12 54.9013 217.054 55.456C215.987 56.0107 214.771 56.288 213.406 56.288C211.891 56.288 210.504 55.904 209.246 55.136C207.987 54.3467 206.984 53.2587 206.238 51.872C205.512 50.464 205.15 48.8747 205.15 47.104ZM219.582 47.168C219.582 45.952 219.326 44.896 218.814 44C218.323 43.104 217.672 42.4213 216.862 41.952C216.051 41.4827 215.176 41.248 214.238 41.248C213.299 41.248 212.424 41.4827 211.614 41.952C210.803 42.4 210.142 43.072 209.63 43.968C209.139 44.8427 208.894 45.888 208.894 47.104C208.894 48.32 209.139 49.3867 209.63 50.304C210.142 51.2213 210.803 51.9253 211.614 52.416C212.446 52.8853 213.32 53.12 214.238 53.12C215.176 53.12 216.051 52.8853 216.862 52.416C217.672 51.9467 218.323 51.264 218.814 50.368C219.326 49.4507 219.582 48.384 219.582 47.168ZM226.517 47.168C226.517 45.3547 226.88 43.7653 227.605 42.4C228.352 41.0133 229.376 39.9467 230.677 39.2C231.978 38.4533 233.472 38.08 235.157 38.08C237.29 38.08 239.05 38.592 240.437 39.616C241.845 40.6187 242.794 42.0587 243.285 43.936H239.349C239.029 43.0613 238.517 42.3787 237.813 41.888C237.109 41.3973 236.224 41.152 235.157 41.152C233.664 41.152 232.469 41.6853 231.573 42.752C230.698 43.7973 230.261 45.2693 230.261 47.168C230.261 49.0667 230.698 50.5493 231.573 51.616C232.469 52.6827 233.664 53.216 235.157 53.216C237.269 53.216 238.666 52.288 239.349 50.432H243.285C242.773 52.224 241.813 53.6533 240.405 54.72C238.997 55.7653 237.248 56.288 235.157 56.288C233.472 56.288 231.978 55.9147 230.677 55.168C229.376 54.4 228.352 53.3333 227.605 51.968C226.88 50.5813 226.517 48.9813 226.517 47.168ZM253.577 47.2L261.705 56H256.777L250.249 48.416V56H246.601V32.32H250.249V46.08L256.649 38.368H261.705L253.577 47.2Z" fill="black"/>
<defs>
<linearGradient id="paint0_linear_198_713" x1="41.2761" y1="0" x2="41.2761" y2="43.1187" gradientUnits="userSpaceOnUse">
<stop stop-color="white"/>
<stop offset="1" stop-color="#F3D58D"/>
</linearGradient>
<linearGradient id="paint1_linear_198_713" x1="40.378" y1="18.3254" x2="40.378" y2="43.1187" gradientUnits="userSpaceOnUse">
<stop stop-color="white"/>
<stop offset="1" stop-color="#F3D58D"/>
</linearGradient>
</defs>
</svg>
